<svg version="1.1" viewBox="0.0 0.0 638.3333333333334 272.83727034120733" fill="none" stroke="none" stroke-linecap="square" stroke-miterlimit="10" xmlns:xlink="http://www.w3.org/1999/xlink" xmlns="http://www.w3.org/2000/svg"><clipPath id="p.0"><path d="m0 0l638.3333 0l0 272.83728l-638.3333 0l0 -272.83728z" clip-rule="nonzero"/></clipPath><g clip-path="url(#p.0)"><path fill="#000000" fill-opacity="0.0" d="m0 0l638.3333 0l0 272.83728l-638.3333 0z" fill-rule="evenodd"/><path fill="#000000" fill-opacity="0.0" d="m5.511811E-6 0l582.2362 0l0 310.26773l-582.2362 0z" fill-rule="evenodd"/><path fill="#ffffff" d="m252.22748 49.66562l-26.359375 123.984375l13.484375 0l-6.875 32.34375l-13.484375 0l-7.09375 33.40625l-47.34375 0l7.09375 -33.40625l-56.249992 0l6.875 -32.34375l67.26562 -123.984375l62.6875 0zm-73.703125 123.984375l17.171875 -80.734375l-38.03125 80.734375l20.859375 0zm195.05469 -59.765625l-13.4375 63.28125q-4.59375 21.5625 -9.03125 31.40625q-4.4375 9.84375 -13.640625 18.40625q-9.1875 8.546875 -20.421875 12.3125q-11.234375 3.75 -24.125 3.75q-17.0 0 -27.421875 -3.921875q-10.40625 -3.9375 -15.3125 -12.25q-4.90625 -8.328125 -5.765625 -17.53125q-0.859375 -9.203125 3.40625 -29.234375l14.0625 -66.21875q5.5625 -26.125 12.84375 -39.125q7.28125 -13.015625 22.359375 -20.859375q15.078125 -7.859375 34.1875 -7.859375q15.578125 0 26.71875 5.453125q11.15625 5.4375 15.578125 13.296875q4.4375 7.84375 4.515625 17.6875q0.078125 9.84375 -4.515625 31.40625zm-43.953125 -15.9375q3.21875 -15.109375 2.5625 -18.921875q-0.65625 -3.8125 -6.046875 -3.8125q-5.265625 0 -7.84375 4.046875q-2.5625 4.046875 -5.671875 18.6875l-19.671875 92.578125q-3.515625 16.53125 -2.65625 19.9375q0.875 3.390625 6.140625 3.390625q5.28125 0 7.765625 -3.984375q2.484375 -3.984375 5.453125 -17.9375l19.96875 -93.984375zm171.15625 -48.28125l-26.359375 123.984375l13.484375 0l-6.875 32.34375l-13.484375 0l-7.09375 33.40625l-47.34375 0l7.09375 -33.40625l-56.25 0l6.875 -32.34375l67.265625 -123.984375l62.6875 0zm-73.703125 123.984375l17.171875 -80.734375l-38.03125 80.734375l20.859375 0z" fill-rule="nonzero"/><path fill="#efefef" d="m484.7349 234.26247l2.314972 -9.259842l52.236206 0l-2.3149414 9.259842z" fill-rule="evenodd"/><path fill="#efefef" d="m496.6168 219.85564l2.314972 -9.259842l59.921265 0l-2.3149414 9.259842z" fill-rule="evenodd"/><path fill="#efefef" d="m511.58792 205.44882l2.314972 -9.259842l122.188965 0l-2.3149414 9.259842z" fill-rule="evenodd"/></g></svg>