<svg version="1.1" viewBox="0.0 0.0 512.0 512.0" fill="none" stroke="none" stroke-linecap="square" stroke-miterlimit="10" xmlns:xlink="http://www.w3.org/1999/xlink" xmlns="http://www.w3.org/2000/svg"><clipPath id="p.0"><path d="m0 0l512.0 0l0 512.0l-512.0 0l0 -512.0z" clip-rule="nonzero"/></clipPath><g clip-path="url(#p.0)"><path fill="#000000" fill-opacity="0.0" d="m0 0l512.0 0l0 512.0l-512.0 0z" fill-rule="evenodd"/><path fill="#434343" d="m0 0l0 5.22516E-19c0 -0.002356415 0.0019102517 -0.0042666667 0.0042666667 -0.0042666667l511.99573 0.0042666667c0.001159668 0 0.0021972656 4.4952251E-4 0.0029907227 0.0012496777c8.544922E-4 8.001551E-4 0.0012817383 0.0018853985 0.0012817383 0.003016989l-0.004272461 511.99573c0 0.002380371 -0.0019226074 0.004272461 -0.004272461 0.004272461l-511.99573 -0.004272461l7.3495313E-19 0c-0.002356415 0 -0.0042666667 -0.0019226074 -0.0042666667 -0.004272461z" fill-rule="evenodd"/><path stroke="#000000" stroke-width="1.0" stroke-linejoin="round" stroke-linecap="butt" d="m0 0l0 5.22516E-19c0 -0.002356415 0.0019102517 -0.0042666667 0.0042666667 -0.0042666667l511.99573 0.0042666667c0.001159668 0 0.0021972656 4.4952251E-4 0.0029907227 0.0012496777c8.544922E-4 8.001551E-4 0.0012817383 0.0018853985 0.0012817383 0.003016989l-0.004272461 511.99573c0 0.002380371 -0.0019226074 0.004272461 -0.004272461 0.004272461l-511.99573 -0.004272461l7.3495313E-19 0c-0.002356415 0 -0.0042666667 -0.0019226074 -0.0042666667 -0.004272461z" fill-rule="evenodd"/><path fill="#cfe2f3" d="m178.49248 255.06299l120.976364 -120.97638l120.97638 120.97638l-120.97638 120.97638z" fill-rule="evenodd"/><path fill="#3c78d8" d="m92.48425 255.06299l120.97638 -120.97638l120.97638 120.97638l-120.97638 120.97638z" fill-rule="evenodd"/></g></svg>