<svg version="1.1" viewBox="0.0 0.0 512.0 512.0" fill="none" stroke="none" stroke-linecap="square" stroke-miterlimit="10" xmlns:xlink="http://www.w3.org/1999/xlink" xmlns="http://www.w3.org/2000/svg"><clipPath id="p.0"><path d="m0 0l512.0 0l0 512.0l-512.0 0l0 -512.0z" clip-rule="nonzero"/></clipPath><g clip-path="url(#p.0)"><path fill="#000000" fill-opacity="0.0" d="m0 0l512.0 0l0 512.0l-512.0 0z" fill-rule="evenodd"/><path fill="#434343" d="m0 160.40448l0 0c0 -88.58895 71.81553 -160.40448 160.40448 -160.40448l191.19104 0l0 0c42.5419 0 83.34143 16.89971 113.423096 46.981384c30.081665 30.081673 46.981384 70.88118 46.981384 113.423096l0 191.19104l0 0c0 88.58896 -71.81552 160.40448 -160.40448 160.40448l-191.19104 0c-88.58895 0 -160.40448 -71.81552 -160.40448 -160.40448z" fill-rule="evenodd"/><path stroke="#000000" stroke-width="1.0" stroke-linejoin="round" stroke-linecap="butt" d="m0 160.40448l0 0c0 -88.58895 71.81553 -160.40448 160.40448 -160.40448l191.19104 0l0 0c42.5419 0 83.34143 16.89971 113.423096 46.981384c30.081665 30.081673 46.981384 70.88118 46.981384 113.423096l0 191.19104l0 0c0 88.58896 -71.81552 160.40448 -160.40448 160.40448l-191.19104 0c-88.58895 0 -160.40448 -71.81552 -160.40448 -160.40448z" fill-rule="evenodd"/><path fill="#cfe2f3" d="m178.49248 255.06299l120.976364 -120.97638l120.97638 120.97638l-120.97638 120.97638z" fill-rule="evenodd"/><path fill="#3c78d8" d="m92.48425 255.06299l120.97638 -120.97638l120.97638 120.97638l-120.97638 120.97638z" fill-rule="evenodd"/></g></svg>