<svg version="1.1" viewBox="0.0 0.0 960.7532808398951 162.16010498687663" fill="none" stroke="none" stroke-linecap="square" stroke-miterlimit="10" xmlns:xlink="http://www.w3.org/1999/xlink" xmlns="http://www.w3.org/2000/svg"><clipPath id="p.0"><path d="m0 0l960.7533 0l0 162.16011l-960.7533 0l0 -162.16011z" clip-rule="nonzero"/></clipPath><g clip-path="url(#p.0)"><path fill="#000000" fill-opacity="0.0" d="m0 0l960.7533 0l0 162.16011l-960.7533 0z" fill-rule="evenodd"/><path fill="#434343" d="m0 26.751192l0 0c0 -14.774276 11.976916 -26.751192 26.751192 -26.751192l906.49756 0c7.0949097 0 13.89917 2.818421 18.915955 7.8352423c5.0168457 5.016822 7.835266 11.821092 7.835266 18.91595l0 107.00156c0 14.774277 -11.976929 26.75119 -26.75122 26.75119l-906.49756 0c-14.774276 0 -26.751192 -11.976913 -26.751192 -26.75119z" fill-rule="evenodd"/><path stroke="#000000" stroke-width="1.0" stroke-linejoin="round" stroke-linecap="butt" d="m0 26.751192l0 0c0 -14.774276 11.976916 -26.751192 26.751192 -26.751192l906.49756 0c7.0949097 0 13.89917 2.818421 18.915955 7.8352423c5.0168457 5.016822 7.835266 11.821092 7.835266 18.91595l0 107.00156c0 14.774277 -11.976929 26.75119 -26.75122 26.75119l-906.49756 0c-14.774276 0 -26.751192 -11.976913 -26.751192 -26.75119z" fill-rule="evenodd"/><path fill="#000000" fill-opacity="0.0" d="m0 4.7060366l960.0 0l0 155.1181l-960.0 0z" fill-rule="evenodd"/><path fill="#f3f3f3" d="m96.46088 122.11666q-7.171875 0 -7.171875 -7.390625l0 -65.96875q0 -7.390625 7.171875 -7.390625q7.15625 0 7.15625 7.390625l0 65.96875q0 7.390625 -7.15625 7.390625zm30.005875 0q-6.9375 0 -6.9375 -7.15625l0 -42.34375q0 -7.046875 6.828125 -7.046875q6.828125 0 6.828125 7.046875l0 2.359375q2.8125 -4.703125 7.5625 -7.171875q4.765625 -2.46875 10.703125 -2.46875q19.375 0 19.375 22.515625l0 27.109375q0 7.15625 -6.953125 7.15625q-7.046875 0 -7.046875 -7.15625l0 -26.4375q0 -6.390625 -2.40625 -9.296875q-2.40625 -2.90625 -7.453125 -2.90625q-6.15625 0 -9.796875 3.859375q-3.640625 3.859375 -3.640625 10.25l0 24.53125q0 7.15625 -7.0625 7.15625zm78.629364 0.234375q-4.8125 0 -10.1875 -1.015625q-5.375 -1.0 -9.640625 -3.46875q-2.34375 -1.34375 -2.90625 -3.296875q-0.5625 -1.96875 0.15625 -3.703125q0.734375 -1.734375 2.46875 -2.515625q1.734375 -0.78125 4.09375 0.328125q4.484375 2.125 8.390625 2.96875q3.921875 0.84375 7.734375 0.84375q5.375 0 8.0 -1.84375q2.640625 -1.859375 2.640625 -4.875q0 -4.703125 -6.9375 -6.046875l-11.203125 -2.125q-14.21875 -2.6875 -14.21875 -14.796875q0 -5.375 2.953125 -9.28125q2.96875 -3.921875 8.234375 -6.046875q5.265625 -2.140625 12.109375 -2.140625q9.84375 0 17.578125 4.375q2.125 1.109375 2.515625 3.078125q0.390625 1.953125 -0.453125 3.6875q-0.828125 1.734375 -2.625 2.46875q-1.796875 0.734375 -4.140625 -0.390625q-3.46875 -1.796875 -6.671875 -2.578125q-3.1875 -0.78125 -6.09375 -0.78125q-5.5 0 -8.125 1.90625q-2.625 1.90625 -2.625 5.03125q0 4.9375 6.375 6.046875l11.203125 2.140625q7.28125 1.34375 11.03125 4.921875q3.75 3.578125 3.75 9.625q0 8.1875 -6.390625 12.84375q-6.375 4.640625 -17.015625 4.640625zm59.142868 0q-21.734375 0 -21.734375 -21.515625l0 -23.84375l-5.828125 0q-5.59375 0 -5.59375 -5.265625q0 -5.265625 5.59375 -5.265625l5.828125 0l0 -10.187504q0 -7.0625 7.0625 -7.0625q6.9375 0 6.9375 7.0625l0 10.187504l11.875 0q5.59375 0 5.59375 5.265625q0 5.265625 -5.59375 5.265625l-11.875 0l0 23.0625q0 5.375 2.34375 8.0625q2.359375 2.6875 7.625 2.6875q1.90625 0 3.359375 -0.328125q1.453125 -0.34375 2.578125 -0.453125q1.34375 -0.109375 2.234375 0.84375q0.90625 0.953125 0.90625 3.859375q0 2.25 -0.734375 3.984375q-0.734375 1.734375 -2.640625 2.40625q-1.453125 0.453125 -3.8125 0.84375q-2.34375 0.390625 -4.125 0.390625zm35.945496 0q-5.9375 0 -10.59375 -2.296875q-4.640625 -2.296875 -7.28125 -6.21875q-2.625 -3.921875 -2.625 -8.84375q0 -6.046875 3.140625 -9.578125q3.140625 -3.53125 10.1875 -5.09375q7.0625 -1.578125 18.9375 -1.578125l3.90625 0l0 -2.34375q0 -5.609375 -2.46875 -8.0625q-2.453125 -2.46875 -8.28125 -2.46875q-3.25 0 -7.0 0.78125q-3.75 0.78125 -7.890625 2.6875q-2.6875 1.234375 -4.484375 0.28125q-1.78125 -0.953125 -2.40625 -3.015625q-0.609375 -2.078125 0.21875 -4.203125q0.84375 -2.125 3.421875 -3.140625q5.15625 -2.125 9.90625 -3.015625q4.765625 -0.90625 8.6875 -0.90625q11.984375 0 17.796875 5.546875q5.828125 5.546875 5.828125 17.1875l0 26.890625q0 7.15625 -6.484375 7.15625q-6.609375 0 -6.609375 -7.15625l0 -2.46875q-1.90625 4.59375 -6.046875 7.234375q-4.140625 2.625 -9.859375 2.625zm2.90625 -9.640625q5.5 0 9.125 -3.796875q3.640625 -3.8125 3.640625 -9.640625l0 -2.46875l-3.796875 0q-10.53125 0 -14.625 1.625q-4.078125 1.625 -4.078125 5.890625q0 3.6875 2.5625 6.046875q2.578125 2.34375 7.171875 2.34375zm47.264008 9.40625q-6.9375 0 -6.9375 -7.15625l0 -42.34375q0 -7.046875 6.828125 -7.046875q6.828125 0 6.828125 7.046875l0 2.359375q2.8125 -4.703125 7.5625 -7.171875q4.765625 -2.46875 10.703125 -2.46875q19.375 0 19.375 22.515625l0 27.109375q0 7.15625 -6.953125 7.15625q-7.046875 0 -7.046875 -7.15625l0 -26.4375q0 -6.390625 -2.40625 -9.296875q-2.40625 -2.90625 -7.453125 -2.90625q-6.15625 0 -9.796875 3.859375q-3.640625 3.859375 -3.640625 10.25l0 24.53125q0 7.15625 -7.0625 7.15625zm83.67621 0.234375q-21.734375 0 -21.734375 -21.515625l0 -23.84375l-5.828125 0q-5.59375 0 -5.59375 -5.265625q0 -5.265625 5.59375 -5.265625l5.828125 0l0 -10.187504q0 -7.0625 7.0625 -7.0625q6.9375 0 6.9375 7.0625l0 10.187504l11.875 0q5.59375 0 5.59375 5.265625q0 5.265625 -5.59375 5.265625l-11.875 0l0 23.0625q0 5.375 2.34375 8.0625q2.359375 2.6875 7.625 2.6875q1.90625 0 3.359375 -0.328125q1.453125 -0.34375 2.578125 -0.453125q1.34375 -0.109375 2.234375 0.84375q0.90625 0.953125 0.90625 3.859375q0 2.25 -0.734375 3.984375q-0.734375 1.734375 -2.640625 2.40625q-1.453125 0.453125 -3.8125 0.84375q-2.34375 0.390625 -4.125 0.390625zm50.391235 -0.234375q-3.921875 0 -5.609375 -2.6875q-1.671875 -2.6875 0.125 -6.484375l29.5625 -65.53125q1.453125 -3.25 3.53125 -4.640625q2.078125 -1.40625 4.765625 -1.40625q2.578125 0 4.640625 1.40625q2.078125 1.390625 3.53125 4.640625l29.671875 65.53125q1.796875 3.90625 0.21875 6.546875q-1.5625 2.625 -5.359375 2.625q-3.140625 0 -4.875 -1.5q-1.734375 -1.515625 -3.078125 -4.65625l-5.609375 -12.984375l-38.515625 0l-5.5 12.984375q-1.453125 3.25 -3.03125 4.703125q-1.5625 1.453125 -4.46875 1.453125zm32.140625 -64.28125l-14.21875 33.70313l28.671875 0l-14.21875 -33.70313l-0.234375 0zm68.8905 64.515625q-20.171875 0 -20.171875 -22.625l0 -27.109375q0 -7.046875 6.953125 -7.046875q7.046875 0 7.046875 7.046875l0 27.328125q0 5.828125 2.34375 8.625q2.359375 2.796875 7.515625 2.796875q5.609375 0 9.1875 -3.859375q3.578125 -3.859375 3.578125 -10.25l0 -24.640625q0 -7.046875 6.953125 -7.046875q7.046875 0 7.046875 7.046875l0 42.34375q0 7.15625 -6.828125 7.15625q-6.828125 0 -6.828125 -7.15625l0 -1.90625q-5.484375 9.296875 -16.796875 9.296875zm70.3324 0q-8.625 0 -15.015625 -3.53125q-6.375 -3.53125 -9.859375 -10.015625q-3.46875 -6.5 -3.46875 -15.234375q0 -8.75 3.46875 -15.078125q3.484375 -6.328125 9.859375 -9.734375q6.390625 -3.421875 15.015625 -3.421875q3.6875 0 8.0 1.015625q4.3125 1.0 8.125 3.359375q2.234375 1.34375 2.625 3.46875q0.40625 2.125 -0.546875 3.921875q-0.953125 1.78125 -2.8125 2.578125q-1.84375 0.78125 -4.1875 -0.5625q-5.15625 -2.921875 -9.96875 -2.921875q-7.28125 0 -11.265625 4.546875q-3.96875 4.53125 -3.96875 12.9375q0 8.28125 3.96875 13.046875q3.984375 4.75 11.265625 4.75q4.8125 0 9.96875 -2.796875q2.34375 -1.34375 4.140625 -0.546875q1.796875 0.78125 2.578125 2.625q0.78125 1.84375 0.328125 3.921875q-0.4375 2.0625 -2.578125 3.40625q-3.6875 2.25 -7.84375 3.25q-4.140625 1.015625 -7.828125 1.015625zm52.869263 0q-21.734375 0 -21.734375 -21.515625l0 -23.84375l-5.828125 0q-5.59375 0 -5.59375 -5.265625q0 -5.265625 5.59375 -5.265625l5.828125 0l0 -10.187504q0 -7.0625 7.0625 -7.0625q6.9375 0 6.9375 7.0625l0 10.187504l11.875 0q5.59375 0 5.59375 5.265625q0 5.265625 -5.59375 5.265625l-11.875 0l0 23.0625q0 5.375 2.34375 8.0625q2.359375 2.6875 7.625 2.6875q1.90625 0 3.359375 -0.328125q1.453125 -0.34375 2.578125 -0.453125q1.34375 -0.109375 2.234375 0.84375q0.90625 0.953125 0.90625 3.859375q0 2.25 -0.734375 3.984375q-0.734375 1.734375 -2.640625 2.40625q-1.453125 0.453125 -3.8125 0.84375q-2.34375 0.390625 -4.125 0.390625zm26.30774 -67.09375q-3.921875 0 -6.109375 -1.953125q-2.171875 -1.96875 -2.171875 -5.4375q0 -3.578125 2.171875 -5.484375q2.1875 -1.90625 6.109375 -1.90625q8.296875 0 8.296875 7.390625q0 7.390625 -8.296875 7.390625zm0 66.75q-3.359375 0 -5.15625 -2.015625q-1.78125 -2.015625 -1.78125 -5.59375l0 -41.109375q0 -7.609375 6.9375 -7.609375q7.0625 0 7.0625 7.609375l0 41.109375q0 3.578125 -1.796875 5.59375q-1.78125 2.015625 -5.265625 2.015625zm46.591248 0.34375q-8.5 0 -14.78125 -3.46875q-6.265625 -3.484375 -9.75 -9.921875q-3.46875 -6.4375 -3.46875 -15.171875q0 -8.734375 3.46875 -15.109375q3.484375 -6.390625 9.75 -9.859375q6.28125 -3.484375 14.78125 -3.484375q8.515625 0 14.78125 3.484375q6.28125 3.46875 9.75 9.859375q3.46875 6.375 3.46875 15.109375q0 8.734375 -3.46875 15.171875q-3.46875 6.4375 -9.75 9.921875q-6.265625 3.46875 -14.78125 3.46875zm0 -10.640625q6.28125 0 10.078125 -4.53125q3.8125 -4.546875 3.8125 -13.390625q0 -8.96875 -3.8125 -13.390625q-3.796875 -4.421875 -10.078125 -4.421875q-6.265625 0 -10.078125 4.421875q-3.796875 4.421875 -3.796875 13.390625q0 8.84375 3.796875 13.390625q3.8125 4.53125 10.078125 4.53125zm46.480774 10.40625q-6.9375 0 -6.9375 -7.15625l0 -42.34375q0 -7.046875 6.828125 -7.046875q6.828125 0 6.828125 7.046875l0 2.359375q2.8125 -4.703125 7.5625 -7.171875q4.765625 -2.46875 10.703125 -2.46875q19.375 0 19.375 22.515625l0 27.109375q0 7.15625 -6.953125 7.15625q-7.046875 0 -7.046875 -7.15625l0 -26.4375q0 -6.390625 -2.40625 -9.296875q-2.40625 -2.90625 -7.453125 -2.90625q-6.15625 0 -9.796875 3.859375q-3.640625 3.859375 -3.640625 10.25l0 24.53125q0 7.15625 -7.0625 7.15625z" fill-rule="nonzero"/></g></svg>